<svg xmlns="http://www.w3.org/2000/svg" viewBox="0 0 170 170"><rect width="170" height="170" rx="34.0" fill="#2A211E"></rect><g transform="translate(10.66,2.37) scale(0.9911)"><g fill="#D2A648"><path fill-rule="evenodd" d="M14.5,33 H135.5 V150 H14.5 Z M32,144.5 V92.88 Q33,59.019999999999996 75,49.019999999999996 Q117,59.019999999999996 118,92.88 V144.5 Z M35.00,35.50 L37.86,40.09 L43.13,38.87 L41.91,44.14 L46.50,47.00 L41.91,49.86 L43.13,55.13 L37.86,53.91 L35.00,58.50 L32.14,53.91 L26.87,55.13 L28.09,49.86 L23.50,47.00 L28.09,44.14 L26.87,38.87 L32.14,40.09 Z M115.00,35.50 L117.86,40.09 L123.13,38.87 L121.91,44.14 L126.50,47.00 L121.91,49.86 L123.13,55.13 L117.86,53.91 L115.00,58.50 L112.14,53.91 L106.87,55.13 L108.09,49.86 L103.50,47.00 L108.09,44.14 L106.87,38.87 L112.14,40.09 Z"></path><path d="M19.50,34 v-6.63 h4.63 v-6.63 h4.63 v-6.63 h4.00 v6.63 h4.63 v6.63 h4.63 v6.63 Z M49.00,34 v-6.63 h4.63 v-6.63 h4.63 v-6.63 h4.00 v6.63 h4.63 v6.63 h4.63 v6.63 Z M78.50,34 v-6.63 h4.63 v-6.63 h4.63 v-6.63 h4.00 v6.63 h4.63 v6.63 h4.63 v6.63 Z M108.00,34 v-6.63 h4.63 v-6.63 h4.63 v-6.63 h4.00 v6.63 h4.63 v6.63 h4.63 v6.63 Z"></path></g><g transform="translate(-6.75,-7) scale(1.09)" fill="#1FA396" stroke="#1FA396"><circle cx="75" cy="65.75" r="8.75"></circle><path d="M65,91.5 L85,91.5 L78.8,74.5 L71.2,74.5 Z"></path><circle cx="75" cy="100.5" r="9.5" fill="none" stroke-width="7.5"></circle><path id="wr" d="M84.5,89.5 L109.5,83 v8 L101.2,93 V100 L92.8,102 V109 L84.5,109 Z"></path><use href="#wr" transform="translate(150,0) scale(-1,1)"></use><path d="M72,110.5 L78,110.5 L86,135.5 L64,135.5 Z"></path></g></g></svg>