<svg xmlns="http://www.w3.org/2000/svg" viewBox="0 0 170 170"><rect width="170" height="170" rx="34.0" fill="#2A211E"></rect><g transform="translate(10.66,2.37) scale(0.9911)"><g fill="#E3A93C"><path fill-rule="evenodd" d="M14.5,33 H135.5 V150 H14.5 Z M32,144.5 V92.88 Q33,59.019999999999996 75,49.019999999999996 Q117,59.019999999999996 118,92.88 V144.5 Z M35.00,35.50 L37.86,40.09 L43.13,38.87 L41.91,44.14 L46.50,47.00 L41.91,49.86 L43.13,55.13 L37.86,53.91 L35.00,58.50 L32.14,53.91 L26.87,55.13 L28.09,49.86 L23.50,47.00 L28.09,44.14 L26.87,38.87 L32.14,40.09 Z M115.00,35.50 L117.86,40.09 L123.13,38.87 L121.91,44.14 L126.50,47.00 L121.91,49.86 L123.13,55.13 L117.86,53.91 L115.00,58.50 L112.14,53.91 L106.87,55.13 L108.09,49.86 L103.50,47.00 L108.09,44.14 L106.87,38.87 L112.14,40.09 Z"></path><path d="M19.50,34 v-6.63 h4.63 v-6.63 h4.63 v-6.63 h4.00 v6.63 h4.63 v6.63 h4.63 v6.63 Z M49.00,34 v-6.63 h4.63 v-6.63 h4.63 v-6.63 h4.00 v6.63 h4.63 v6.63 h4.63 v6.63 Z M78.50,34 v-6.63 h4.63 v-6.63 h4.63 v-6.63 h4.00 v6.63 h4.63 v6.63 h4.63 v6.63 Z M108.00,34 v-6.63 h4.63 v-6.63 h4.63 v-6.63 h4.00 v6.63 h4.63 v6.63 h4.63 v6.63 Z"></path></g><path d="M68.3,69 h13.5 v43 h-13.5 Z M68.3,122 h13.5 v12 h-13.5 Z" fill="#E3A93C"></path></g></svg>