<svg xmlns="http://www.w3.org/2000/svg" viewBox="0 0 150 170"><g transform="translate(75,100) scale(1.16) translate(-75,-100)"><g fill="black"><path fill-rule="evenodd" d="M14.5,33 H135.5 V150 H14.5 Z M32,144.5 V92.88 Q33,59.02 75,49.02 Q117,59.02 118,92.88 V144.5 Z"></path><path d="M19.50,34 v-6.63 h4.63 v-6.63 h4.63 v-6.63 h4.00 v6.63 h4.63 v6.63 h4.63 v6.63 Z M49.00,34 v-6.63 h4.63 v-6.63 h4.63 v-6.63 h4.00 v6.63 h4.63 v6.63 h4.63 v6.63 Z M78.50,34 v-6.63 h4.63 v-6.63 h4.63 v-6.63 h4.00 v6.63 h4.63 v6.63 h4.63 v6.63 Z M108.00,34 v-6.63 h4.63 v-6.63 h4.63 v-6.63 h4.00 v6.63 h4.63 v6.63 h4.63 v6.63 Z"></path></g><path d="M49.5,49.5 h6 v98 h-6 Z M72,49.5 h6 v98 h-6 Z M94.5,49.5 h6 v98 h-6 Z M30.5,76.5 h89 v5 h-89 Z M30.5,99.5 h89 v5 h-89 Z M30.5,122.5 h89 v5 h-89 Z" fill="black"></path></g></svg>