<svg xmlns="http://www.w3.org/2000/svg" viewBox="0 0 150 170"><g transform="translate(75,100) scale(1.16) translate(-75,-100)" opacity=".8"><g fill="#8B8178"><path fill-rule="evenodd" d="M12.5,33 H137.5 V150 H12.5 Z M32,144.5 V92.88 Q33,59.02 75,49.02 Q117,59.02 118,92.88 V144.5 Z"></path><path d="M17.50,34 v-6.63 h4.88 v-6.63 h4.88 v-6.63 h4.00 v6.63 h4.88 v6.63 h4.88 v6.63 Z M48.00,34 v-6.63 h4.88 v-6.63 h4.88 v-6.63 h4.00 v6.63 h4.88 v6.63 h4.88 v6.63 Z M78.50,34 v-6.63 h4.88 v-6.63 h4.88 v-6.63 h4.00 v6.63 h4.88 v6.63 h4.88 v6.63 Z M109.00,34 v-6.63 h4.88 v-6.63 h4.88 v-6.63 h4.00 v6.63 h4.88 v6.63 h4.88 v6.63 Z"></path></g></g></svg>