<svg xmlns="http://www.w3.org/2000/svg" viewBox="0 0 1024 1024"><defs><linearGradient id="bg" x1="0.1" y1="0" x2="0.42" y2="1"><stop offset="0" stop-color="#7A211B"></stop><stop offset="1" stop-color="#4A100D"></stop></linearGradient><clipPath id="ac"><rect width="1024" height="1024" rx="204.8"></rect></clipPath></defs><rect width="1024" height="1024" rx="204.8" fill="url(#bg)"></rect><g clip-path="url(#ac)"><svg x="48.93" y="-5.68" width="926.14" height="1054.77" viewBox="0 0 150 170" preserveAspectRatio="xMidYMid meet"><g fill="#D2A648"><path fill-rule="evenodd" d="M12.5,33 H137.5 V150 H118 V91.2 Q117,56.05 75,46.05 Q33,56.05 32,91.2 V150 H12.5 Z M31.00,36.00 L34.12,40.46 L39.49,39.51 L38.54,44.88 L43.00,48.00 L38.54,51.12 L39.49,56.49 L34.12,55.54 L31.00,60.00 L27.88,55.54 L22.51,56.49 L23.46,51.12 L19.00,48.00 L23.46,44.88 L22.51,39.51 L27.88,40.46 Z M119.00,36.00 L122.12,40.46 L127.49,39.51 L126.54,44.88 L131.00,48.00 L126.54,51.12 L127.49,56.49 L122.12,55.54 L119.00,60.00 L115.88,55.54 L110.51,56.49 L111.46,51.12 L107.00,48.00 L111.46,44.88 L110.51,39.51 L115.88,40.46 Z"></path><path d="M17.25,34 v-6.38 h5.00 v-6.38 h5.00 v-6.38 h4.00 v6.38 h5.00 v6.38 h5.00 v6.38 Z M47.75,34 v-6.38 h5.00 v-6.38 h5.00 v-6.38 h4.00 v6.38 h5.00 v6.38 h5.00 v6.38 Z M78.25,34 v-6.38 h5.00 v-6.38 h5.00 v-6.38 h4.00 v6.38 h5.00 v6.38 h5.00 v6.38 Z M108.75,34 v-6.38 h5.00 v-6.38 h5.00 v-6.38 h4.00 v6.38 h5.00 v6.38 h5.00 v6.38 Z"></path></g><g transform="translate(-8.25,-7) scale(1.11)" fill="#1FA396" stroke="#1FA396"><circle cx="75" cy="64.25" r="8.75"></circle><path d="M65,91.5 L85,91.5 L78.8,73 L71.2,73 Z"></path><circle cx="75" cy="100.5" r="9.5" fill="none" stroke-width="7.5"></circle><path id="wr" d="M84.5,90 L108.5,80.5 v8 L102.1,90.5 V97.5 L95.3,99.5 V106.5 L84.5,106.5 Z"></path><use href="#wr" transform="translate(150,0) scale(-1,1)"></use><path d="M70.5,110.5 L79.5,110.5 L87.5,135.5 L62.5,135.5 Z"></path></g></svg></g><rect x="9" y="9" width="1006" height="1006" rx="195.8" fill="none" stroke="rgba(210,166,72,0.45)" stroke-width="15"></rect></svg>