<svg xmlns="http://www.w3.org/2000/svg" viewBox="0 0 170 170"><defs><clipPath id="tc"><rect width="170" height="170" rx="34.0"></rect></clipPath></defs><rect width="170" height="170" rx="34.0" fill="#2A211E"></rect><g clip-path="url(#tc)"><svg x="6.61" y="-1.97" width="156.78" height="177.16" viewBox="0 0 150 170" preserveAspectRatio="xMidYMid meet"><g fill="#E3A93C"><path fill-rule="evenodd" d="M12.5,33 H137.5 V150 H118 V91.2 Q117,56.05 75,46.05 Q33,56.05 32,91.2 V150 H12.5 Z M31.00,36.00 L34.12,40.46 L39.49,39.51 L38.54,44.88 L43.00,48.00 L38.54,51.12 L39.49,56.49 L34.12,55.54 L31.00,60.00 L27.88,55.54 L22.51,56.49 L23.46,51.12 L19.00,48.00 L23.46,44.88 L22.51,39.51 L27.88,40.46 Z M119.00,36.00 L122.12,40.46 L127.49,39.51 L126.54,44.88 L131.00,48.00 L126.54,51.12 L127.49,56.49 L122.12,55.54 L119.00,60.00 L115.88,55.54 L110.51,56.49 L111.46,51.12 L107.00,48.00 L111.46,44.88 L110.51,39.51 L115.88,40.46 Z"></path><path d="M17.25,34 v-6.38 h5.00 v-6.38 h5.00 v-6.38 h4.00 v6.38 h5.00 v6.38 h5.00 v6.38 Z M47.75,34 v-6.38 h5.00 v-6.38 h5.00 v-6.38 h4.00 v6.38 h5.00 v6.38 h5.00 v6.38 Z M78.25,34 v-6.38 h5.00 v-6.38 h5.00 v-6.38 h4.00 v6.38 h5.00 v6.38 h5.00 v6.38 Z M108.75,34 v-6.38 h5.00 v-6.38 h5.00 v-6.38 h4.00 v6.38 h5.00 v6.38 h5.00 v6.38 Z"></path><path d="M68.5,62.5 h13 v53 h-13 Z M68.5,128 h13 v13 h-13 Z"></path></g></svg></g></svg>