<svg xmlns="http://www.w3.org/2000/svg" viewBox="0 0 150 170"><g transform="translate(75,100) scale(1.16) translate(-75,-100)"><g fill="black"><path fill-rule="evenodd" d="M12.5,33 H137.5 V150 H118 V91.2 Q117,56.05 75,46.05 Q33,56.05 32,91.2 V150 H12.5 Z"></path><path d="M17.25,34 v-6.38 h5.00 v-6.38 h5.00 v-6.38 h4.00 v6.38 h5.00 v6.38 h5.00 v6.38 Z M47.75,34 v-6.38 h5.00 v-6.38 h5.00 v-6.38 h4.00 v6.38 h5.00 v6.38 h5.00 v6.38 Z M78.25,34 v-6.38 h5.00 v-6.38 h5.00 v-6.38 h4.00 v6.38 h5.00 v6.38 h5.00 v6.38 Z M108.75,34 v-6.38 h5.00 v-6.38 h5.00 v-6.38 h4.00 v6.38 h5.00 v6.38 h5.00 v6.38 Z"></path><path d="M49,46 h6 v104 h-6 Z M72,46 h6 v104 h-6 Z M95,46 h6 v104 h-6 Z M27,75.5 h96 v5 h-96 Z M27,100.5 h96 v5 h-96 Z M27,125.5 h96 v5 h-96 Z"></path></g></g></svg>