<svg xmlns="http://www.w3.org/2000/svg" viewBox="0 0 150 170"><g transform="translate(75,100) scale(1.16) translate(-75,-100)" opacity="0.8"><g fill="#8B8178"><path fill-rule="evenodd" d="M12.5,33 H137.5 V150 H118 V91.2 Q117,56.05 75,46.05 Q33,56.05 32,91.2 V150 H12.5 Z"></path><path d="M17.25,34 v-6.38 h5.00 v-6.38 h5.00 v-6.38 h4.00 v6.38 h5.00 v6.38 h5.00 v6.38 Z M47.75,34 v-6.38 h5.00 v-6.38 h5.00 v-6.38 h4.00 v6.38 h5.00 v6.38 h5.00 v6.38 Z M78.25,34 v-6.38 h5.00 v-6.38 h5.00 v-6.38 h4.00 v6.38 h5.00 v6.38 h5.00 v6.38 Z M108.75,34 v-6.38 h5.00 v-6.38 h5.00 v-6.38 h4.00 v6.38 h5.00 v6.38 h5.00 v6.38 Z"></path></g></g></svg>