<svg xmlns="http://www.w3.org/2000/svg" viewBox="0 0 1024 1024"><defs><linearGradient id="bg" x1="0.1" y1="0" x2="0.42" y2="1"><stop offset="0" stop-color="#7A211B"></stop><stop offset="1" stop-color="#4A100D"></stop></linearGradient></defs><rect width="1024" height="1024" rx="229" fill="url(#bg)"></rect><rect x="9" y="9" width="1006" height="1006" rx="221" fill="none" stroke="rgba(210,166,72,0.45)" stroke-width="15"></rect><svg x="182.0" y="168.0" width="660" height="660" viewBox="0 0 150 170" preserveAspectRatio="xMidYMid meet"><g fill="#D2A648"><path fill-rule="evenodd" d="M12.5,33 H137.5 V150 H118 V91.2 Q117,56.05 75,46.05 Q33,56.05 32,91.2 V150 H12.5 Z M31.00,36.50 L34.08,40.56 L39.13,39.87 L38.44,44.92 L42.50,48.00 L38.44,51.08 L39.13,56.13 L34.08,55.44 L31.00,59.50 L27.92,55.44 L22.87,56.13 L23.56,51.08 L19.50,48.00 L23.56,44.92 L22.87,39.87 L27.92,40.56 Z M119.00,36.50 L122.08,40.56 L127.13,39.87 L126.44,44.92 L130.50,48.00 L126.44,51.08 L127.13,56.13 L122.08,55.44 L119.00,59.50 L115.92,55.44 L110.87,56.13 L111.56,51.08 L107.50,48.00 L111.56,44.92 L110.87,39.87 L115.92,40.56 Z"></path><path d="M17.50,34 v-6.63 h4.88 v-6.63 h4.88 v-6.63 h4.00 v6.63 h4.88 v6.63 h4.88 v6.63 Z M48.00,34 v-6.63 h4.88 v-6.63 h4.88 v-6.63 h4.00 v6.63 h4.88 v6.63 h4.88 v6.63 Z M78.50,34 v-6.63 h4.88 v-6.63 h4.88 v-6.63 h4.00 v6.63 h4.88 v6.63 h4.88 v6.63 Z M109.00,34 v-6.63 h4.88 v-6.63 h4.88 v-6.63 h4.00 v6.63 h4.88 v6.63 h4.88 v6.63 Z"></path></g><g transform="translate(-8.25,-7) scale(1.11)" fill="#1FA396" stroke="#1FA396"><circle cx="75" cy="64.25" r="8.75"></circle><path d="M65,91.5 L85,91.5 L78.8,73 L71.2,73 Z"></path><circle cx="75" cy="100.5" r="9.5" fill="none" stroke-width="7.5"></circle><path id="wr" d="M84.5,89.5 L109.5,83 v8 L101.2,93 V100 L92.8,102 V109 L84.5,109 Z"></path><use href="#wr" transform="translate(150,0) scale(-1,1)"></use><path d="M70.5,110.5 L79.5,110.5 L87.5,135.5 L62.5,135.5 Z"></path></g></svg></svg>