<svg xmlns="http://www.w3.org/2000/svg" viewBox="0 0 170 170"><rect width="170" height="170" rx="39.1" fill="#2A211E"></rect><svg x="1.80" y="1.80" width="166.4" height="166.4" viewBox="0 0 150 170" preserveAspectRatio="xMidYMid meet"><g opacity="0.8"><g fill="#8B8178"><path fill-rule="evenodd" d="M12.5,33 H137.5 V150 H118 V91.2 Q117,56.05 75,46.05 Q33,56.05 32,91.2 V150 H12.5 Z M31.00,36.50 L34.08,40.56 L39.13,39.87 L38.44,44.92 L42.50,48.00 L38.44,51.08 L39.13,56.13 L34.08,55.44 L31.00,59.50 L27.92,55.44 L22.87,56.13 L23.56,51.08 L19.50,48.00 L23.56,44.92 L22.87,39.87 L27.92,40.56 Z M119.00,36.50 L122.08,40.56 L127.13,39.87 L126.44,44.92 L130.50,48.00 L126.44,51.08 L127.13,56.13 L122.08,55.44 L119.00,59.50 L115.92,55.44 L110.87,56.13 L111.56,51.08 L107.50,48.00 L111.56,44.92 L110.87,39.87 L115.92,40.56 Z"></path><path d="M17.50,34 v-6.63 h4.88 v-6.63 h4.88 v-6.63 h4.00 v6.63 h4.88 v6.63 h4.88 v6.63 Z M48.00,34 v-6.63 h4.88 v-6.63 h4.88 v-6.63 h4.00 v6.63 h4.88 v6.63 h4.88 v6.63 Z M78.50,34 v-6.63 h4.88 v-6.63 h4.88 v-6.63 h4.00 v6.63 h4.88 v6.63 h4.88 v6.63 Z M109.00,34 v-6.63 h4.88 v-6.63 h4.88 v-6.63 h4.00 v6.63 h4.88 v6.63 h4.88 v6.63 Z"></path></g></g></svg></svg>