<svg xmlns="http://www.w3.org/2000/svg" viewBox="0 0 150 170"><g transform="translate(75,100) scale(1.16) translate(-75,-100)"><g fill="#E3A93C"><path fill-rule="evenodd" d="M12.5,33 H137.5 V150 H118 V91.2 Q117,56.05 75,46.05 Q33,56.05 32,91.2 V150 H12.5 Z"></path><path d="M17.50,34 v-6.63 h4.88 v-6.63 h4.88 v-6.63 h4.00 v6.63 h4.88 v6.63 h4.88 v6.63 Z M48.00,34 v-6.63 h4.88 v-6.63 h4.88 v-6.63 h4.00 v6.63 h4.88 v6.63 h4.88 v6.63 Z M78.50,34 v-6.63 h4.88 v-6.63 h4.88 v-6.63 h4.00 v6.63 h4.88 v6.63 h4.88 v6.63 Z M109.00,34 v-6.63 h4.88 v-6.63 h4.88 v-6.63 h4.00 v6.63 h4.88 v6.63 h4.88 v6.63 Z"></path><path d="M68.5,62.5 h13 v53 h-13 Z M68.5,128 h13 v13 h-13 Z"></path></g></g></svg>